<?xml version="1.0" encoding="utf-8" ?>
<svg xmlns="http://www.w3.org/2000/svg" xmlns:xlink="http://www.w3.org/1999/xlink" width="14" height="18">
	<path fill="#080040" d="M6.8576913 0C4.0081372 0 1.7148343 2.2949486 1.7148343 5.1428571L1.7148343 6.0010972C0.77142859 6.0010972 0 6.7725258 0 7.7142859L0 16.286812C0 17.228571 0.77142859 18 1.7148343 18L12.000548 18C12.943954 18 13.715383 17.228571 13.715383 16.286812L13.715383 7.7142859C13.715383 6.7725258 12.943954 6.0010972 12.000548 6.0010972L12.000548 5.1428571C12.000548 2.2949486 9.7072458 0 6.8576913 0ZM6.8576913 1.7148343C8.8086853 1.7148343 10.285714 3.1918628 10.285714 5.1428571L10.285714 6.0010972L3.4296687 6.0010972L3.4296687 5.1428571C3.4296687 3.1918628 4.9066973 1.7148343 6.8576913 1.7148343ZM3.4296687 11.143954C3.9003429 11.143954 4.286263 11.529463 4.286263 12.000548C4.286263 12.471634 3.9003429 12.857142 3.4296687 12.857142C2.9573486 12.857142 2.5714285 12.471634 2.5714285 12.000548C2.5714285 11.529463 2.9573486 11.143954 3.4296687 11.143954ZM6.8576913 11.143954C7.3287773 11.143954 7.7142859 11.529463 7.7142859 12.000548C7.7142859 12.471634 7.3287773 12.857142 6.8576913 12.857142C6.3866057 12.857142 6.0010972 12.471634 6.0010972 12.000548C6.0010972 11.529463 6.3866057 11.143954 6.8576913 11.143954ZM10.285714 11.143954C10.758035 11.143954 11.143954 11.529463 11.143954 12.000548C11.143954 12.471634 10.758035 12.857142 10.285714 12.857142C9.8150396 12.857142 9.4291201 12.471634 9.4291201 12.000548C9.4291201 11.529463 9.8150396 11.143954 10.285714 11.143954Z" fill-rule="evenodd"/>
</svg>
